Vorige torrent is corrupt, deze is geheel gecontroleerd en goed!

Thomas de Stoomlocomotief - Het straalvliegtuig

Categorie: Beeld
Formaat: DVD5
Bron: Retail
Ondertitels: Geen
Genre : Animatie, kinderfilm.
Audio: Nederlands.

Het is zomer en op het eiland Sodor hebben ze een picknick georganiseerd. Thomas is naar het vliegveld gestuurd om een paar kinderen op te halen en daar ontmoet hij Jeremy ? straalvliegtuig, die op het punt van vertrekken staat. Door slecht weer komt Jeremy weer terug en hij waarschuwt Thomas. Is de picknick geruïneerd?

Video en Audio informatie:
******************************
Video
ID                               : 224 (0xE0)
Format                           : MPEG Video
Format version                   : Version 2
Format profile                   : Main@Main
Format settings, BVOP            : Yes
Format settings, Matrix          : Default
Format settings, GOP             : M=2, N=14
Duration                         : 28mn 40s
Bit rate mode                    : Variable
Bit rate                         : 4 669 Kbps
Nominal bit rate                 : 8 000 Kbps
Width                            : 720 pixels
Height                           : 576 pixels
Display aspect ratio             : 4:3
Frame rate                       : 25.000 fps
Standard                         : PAL
Color space                      : YUV
Chroma subsampling               : 4:2:0
Bit depth                        : 8 bits
Scan type                        : Interlaced
Scan order                       : Top Field First
Bits/(Pixel*Frame)               : 0.450
Stream size                      : 958 MiB (94%)

Audio
ID                               : 128 (0x80)
Format                           : AC-3
Format/Info                      : Audio Coding 3
Mode extension                   : CM (complete main)
Duration                         : 28mn 40s
Bit rate mode                    : Constant
Bit rate                         : 224 Kbps
Channel(s)                       : 2 channels
Channel positions                : Front: L R
Sampling rate                    : 48.0 KHz
Bit depth                        : 16 bits
Video delay                      : -40ms
Stream size                      : 45.9 MiB (4%)

******************************

Black-Sam TBS